<?xml version="1.0" standalone="no"?>
<!DOCTYPE svg PUBLIC "-//W3C//DTD SVG 20010904//EN"
 "http://www.w3.org/TR/2001/REC-SVG-20010904/DTD/svg10.dtd">
<svg version="1.0" xmlns="http://www.w3.org/2000/svg"
 width="139.000000pt" height="51.000000pt" viewBox="0 0 139.000000 51.000000"
 preserveAspectRatio="xMidYMid meet">

<g transform="translate(0.000000,51.000000) scale(0.100000,-0.100000)"
fill="#000000" stroke="none">
<path d="M389 252 c-81 -103 -145 -189 -144 -190 2 -2 20 -5 39 -7 33 -3 39 1
81 55 l46 59 92 3 92 3 0 40 0 40 -52 3 c-29 2 -53 6 -53 9 0 3 27 41 60 84
33 42 60 80 60 83 0 3 -17 6 -37 6 -37 0 -41 -4 -184 -188z"/>
<path d="M237 338 c-40 -51 -105 -133 -145 -183 l-71 -90 36 -3 c30 -3 40 2
59 25 13 15 21 34 19 41 -3 7 -1 10 5 7 5 -3 17 6 26 20 13 20 24 25 58 25 35
0 45 5 69 35 l28 35 -36 0 c-19 0 -35 3 -35 8 0 4 15 25 33 48 17 22 47 59 65
82 l34 42 -36 0 c-33 0 -41 -7 -109 -92z m-80 -160 c-3 -8 -6 -5 -6 6 -1 11 2
17 5 13 3 -3 4 -12 1 -19z m-37 -58 c0 -5 -5 -10 -11 -10 -5 0 -7 5 -4 10 3 6
8 10 11 10 2 0 4 -4 4 -10z"/>
<path d="M807 420 c-67 -13 -122 -67 -137 -134 l-8 -37 36 3 c31 3 37 7 44 34
4 16 19 41 34 55 23 21 36 24 120 27 l94 4 0 29 0 29 -72 -1 c-40 -1 -90 -5
-111 -9z"/>
<path d="M1183 420 c-56 -13 -97 -44 -120 -90 -33 -64 -31 -80 12 -80 25 0 35
4 35 15 0 32 32 77 65 91 20 8 68 14 113 14 l79 0 -5 30 -4 30 -72 -1 c-39 -1
-85 -4 -103 -9z"/>
<path d="M660 200 c0 -22 30 -68 60 -94 44 -36 92 -48 190 -44 l85 3 0 30 0
30 -90 5 c-96 6 -122 15 -153 55 -15 18 -29 25 -56 25 -20 0 -36 -5 -36 -10z"/>
<path d="M1040 193 c0 -30 36 -79 76 -104 33 -20 55 -24 147 -28 l107 -3 0 36
0 36 -80 0 c-92 0 -138 15 -163 54 -21 32 -87 39 -87 9z"/>
</g>
</svg>
